<?xml version="1.0" encoding="utf-8"?><svg xmlns="http://www.w3.org/2000/svg" xmlns:xlink="http://www.w3.org/1999/xlink" width="600" height="600" viewBox="0 0 600 600"><metadata><?xpacket begin="" id="W5M0MpCehiHzreSzNTczkc9d"?><x:xmpmeta xmlns:x="adobe:ns:meta/" x:xmptk="Adobe XMP Core 5.6-c142 79.160924, 2017/07/13-01:06:39"> <rdf:RDF xmlns:rdf="http://www.w3.org/1999/02/22-rdf-syntax-ns#"><rdf:Description rdf:about=""/> </rdf:RDF></x:xmpmeta><?xpacket end="w"?></metadata><defs><style>.cls-1 {fill: #fff;stroke: #000;stroke-width: 4.48px;fill-rule: evenodd;filter: url(#filter);}</style><filter id="filter" x="10" y="10.531" width="581" height="581.469" filterUnits="userSpaceOnUse"><feOffset result="offset" dy="11" in="SourceAlpha"/><feGaussianBlur result="blur" stdDeviation="3.317"/><feFlood result="flood"/><feComposite result="composite" operator="in" in2="blur"/><feBlend result="blend" in="SourceGraphic"/></filter></defs><g style="fill: #fff; filter: url(#filter)"><path id="logo.svg" class="cls-1" d="M300,569.461C145.658,569.461,20.539,444.342,20.539,290S145.658,10.539,300,10.539,579.461,135.658,579.461,290,454.342,569.461,300,569.461Zm35.829-186.3c-48.906,7.324-72.429,6.015-78.824,7.166-15.9,5.524-28.664,12.69-43,28.664-2.758,20.805-27.082,58.324-42.995,71.658a148.443,148.443,0,0,1-14.095,5.35,249.516,249.516,0,0,0,136.173,44.713c41.589-15.825,52-22.055,92.9-50.063,18.9-16.242,21.259-16.227,50.162-42.995,12.641-18.971,21.069-34.838,28.663-57.327,3.807-9.628,4.031-12.989,0-21.5-12.687-6.569-17.32-6.2-50.161,0C386.886,374.572,370.987,378.081,335.829,383.156Zm50.161-35.829c-3.811-9.8-10.315-12.541-21.5-21.5-11.453-6.2-13.758-7.876-28.664-14.331-30.261-13.541-70.8-10.542-100.322,0-11.173,6.284-7.286,5.528-14.332,14.331-2.986,11.345,3.882,20.23,14.332,28.664,15.041-.6,38.66,1.6,71.659,0,16.6-.806,31.066.377,43,0C375.942,353.677,387.83,352.672,385.99,347.327ZM300,39.194C161.484,39.194,49.194,151.484,49.194,290a251.38,251.38,0,0,0,7.069,59.29c3.306-2.4,7.079-5.158,21.595-16.3,17.691-11.645,22.99-17.541,43-28.663L149.517,290c25.4-11.026,21.9-9.923,35.829-21.5,5.583-4.638,6.361-6.88,0-14.331-33.3-52.265-124.353-76.721-42.995-71.659,43.364,2.537,24.487,1.045,64.493,7.166,32.744,7.123,105.363,29.636,114.654,35.829,36.349-2.687,65.988-1.791,78.824,0,23.948,2.808,64.014,25.185,78.825,35.829,12.4,8.91,26.074,16.285,50.161,50.162,3,4.739,8.7,21.625,7.166,28.663-7.758,13.433-21.1,25.943-28.664,35.829-4.287,5.606-3.133,3.81-7.165,14.332-22.842,46.583-28.216,54.336-35.83,64.493-22.541,33.432-24.992,35.169-50.976,58.722A250.791,250.791,0,0,0,550.806,290C550.806,151.484,438.516,39.194,300,39.194Z" style="stroke: inherit; filter: none; fill: inherit"/></g><use xlink:href="#logo.svg" style="stroke: #000; filter: none; fill: none"/></svg>