<?xml version="1.0" encoding="utf-8"?><svg xmlns="http://www.w3.org/2000/svg" xmlns:xlink="http://www.w3.org/1999/xlink" width="600px" height="600px" viewBox="0 0 600 600"><metadata><?xpacket begin="﻿" id="W5M0MpCehiHzreSzNTczkc9d"?><x:xmpmeta xmlns:x="adobe:ns:meta/" x:xmptk="Adobe XMP Core 5.6-c142 79.160924, 2017/07/13-01:06:39"> <rdf:RDF xmlns:rdf="http://www.w3.org/1999/02/22-rdf-syntax-ns#"><rdf:Description rdf:about=""/> </rdf:RDF></x:xmpmeta><?xpacket end="w"?></metadata><path fill-rule="evenodd"  fill="rgb(255, 255, 255)"
 d="M300.533,600.523 C134.851,600.523 0.540,466.212 0.540,300.531 C0.540,134.850 134.851,0.540 300.533,0.540 C466.214,0.540 600.525,134.850 600.525,300.531 C600.525,466.212 466.214,600.523 300.533,600.523 ZM338.994,400.531 C286.495,408.393 261.243,406.988 254.378,408.224 C237.311,414.153 223.609,421.845 208.224,438.993 C205.264,461.326 179.152,501.602 162.070,515.916 C157.033,518.149 151.934,520.027 146.939,521.659 C188.610,550.657 238.855,568.189 293.117,569.657 C337.762,552.669 348.934,545.981 392.841,515.916 C413.129,498.480 415.661,498.496 446.687,469.762 C460.257,449.398 469.304,432.365 477.457,408.224 C481.543,397.888 481.784,394.281 477.457,385.147 C463.837,378.095 458.864,378.496 423.610,385.147 C393.802,391.316 376.735,395.083 338.994,400.531 ZM392.841,362.070 C388.749,351.552 381.767,348.607 369.764,338.993 C357.469,332.334 354.995,330.538 338.994,323.608 C306.509,309.073 262.996,312.292 231.301,323.608 C219.308,330.354 223.480,329.542 215.917,338.993 C212.711,351.171 220.084,360.709 231.301,369.762 C247.448,369.114 272.801,371.480 308.225,369.762 C326.048,368.897 341.573,370.167 354.379,369.762 C382.053,368.886 394.815,367.807 392.841,362.070 ZM300.533,31.300 C151.840,31.300 31.300,151.839 31.300,300.531 C31.300,322.460 33.941,343.769 38.888,364.177 C42.437,361.604 46.487,358.640 62.070,346.685 C81.060,334.185 86.749,327.855 108.224,315.916 L138.993,300.531 C166.258,288.695 162.499,289.879 177.455,277.454 C183.448,272.475 184.283,270.069 177.455,262.070 C141.712,205.965 43.966,179.712 131.301,185.146 C177.851,187.870 157.587,186.269 200.532,192.839 C235.682,200.485 313.637,224.652 323.610,231.300 C362.629,228.416 394.446,229.377 408.225,231.300 C433.932,234.315 476.942,258.336 492.841,269.762 C506.150,279.326 520.831,287.243 546.688,323.608 C549.911,328.696 556.026,346.822 554.380,354.377 C546.052,368.797 531.727,382.227 523.611,392.839 C519.009,398.856 520.247,396.929 515.918,408.224 C491.399,458.229 485.630,466.552 477.457,477.454 C453.259,513.342 450.628,515.207 422.735,540.490 C510.004,495.959 569.765,405.226 569.765,300.531 C569.765,151.839 449.225,31.300 300.533,31.300 Z"/>
</svg>